<?xml version="1.0" standalone="no"?>
<!DOCTYPE svg PUBLIC "-//W3C//DTD SVG 20010904//EN"
 "http://www.w3.org/TR/2001/REC-SVG-20010904/DTD/svg10.dtd">
<svg version="1.0" xmlns="http://www.w3.org/2000/svg"
 width="260.000000pt" height="260.000000pt" viewBox="0 0 260.000000 260.000000"
 preserveAspectRatio="xMidYMid meet">
<metadata>
Created by potrace 1.11, written by Peter Selinger 2001-2013
</metadata>
<g transform="translate(0.000000,260.000000) scale(0.100000,-0.100000)"
fill="#000000" stroke="none">
<path d="M0 1300 l0 -1300 1300 0 1300 0 0 1300 0 1300 -1300 0 -1300 0 0
-1300z m1377 819 c43 -6 138 -30 211 -55 73 -24 147 -44 166 -44 38 0 70 29
87 78 9 26 16 32 40 32 l29 0 0 -275 0 -275 -24 0 c-20 0 -34 19 -87 111 -146
256 -311 368 -521 357 -101 -5 -158 -29 -227 -93 -177 -166 -238 -674 -126
-1058 49 -169 116 -262 228 -313 57 -27 71 -29 182 -29 134 0 180 14 219 68
20 26 21 42 21 221 0 166 -2 195 -18 219 -28 43 -60 58 -141 64 -76 6 -76 6
-76 34 l0 29 400 0 400 0 0 -29 c0 -26 -3 -29 -49 -34 -66 -8 -107 -30 -128
-70 -15 -27 -19 -64 -21 -235 l-3 -202 -47 -24 c-69 -35 -229 -84 -335 -103
-127 -22 -366 -22 -472 1 -398 87 -643 419 -622 846 7 132 26 215 72 316 107
234 305 397 545 448 128 27 189 30 297 15z"/>
</g>
</svg>
